<svg width="207" height="21" viewBox="0 0 207 21" fill="none" xmlns="http://www.w3.org/2000/svg"><g clip-path="url(#clip0_2640_701)"><g clip-path="url(#clip1_2640_701)"><path fill-rule="evenodd" clip-rule="evenodd" d="M25.8784 0C23.7486 2.07485 18.984 3.51999 13.4482 3.51999C8.00835 3.51999 3.31336 2.12454 1.13106 0.107367L0.0527344 20.4974C3.1834 18.1696 8.02645 16.6763 13.4621 16.6763C18.8932 16.6763 23.7329 18.1673 26.8637 20.4917L25.8784 0Z" fill="black"></path><path d="M36.379 4.35284V18.6328H34.4316V3.05469H37.6772L46.7541 16.6854L55.8314 3.05469H58.9349V18.6328H56.9876V4.56579L47.7382 18.6328H45.7704L36.379 4.35284ZM61.8557 12.7099C61.8557 11.5129 61.9841 10.5224 62.2411 9.73827C62.4981 8.95388 62.9104 8.33187 63.4783 7.87195C64.0465 7.41231 64.7833 7.0911 65.6895 6.90861C66.5955 6.71931 67.6975 6.62467 68.9957 6.62467C70.2938 6.62467 71.3959 6.71931 72.3021 6.90861C73.2081 7.0911 73.9451 7.41231 74.513 7.87195C75.0809 8.33187 75.4935 8.95388 75.7502 9.73827C76.0072 10.5224 76.1356 11.5129 76.1356 12.7099C76.1356 13.9066 76.0072 14.9004 75.7502 15.6916C75.4935 16.4828 75.0809 17.1116 74.513 17.578C73.9451 18.0445 73.2081 18.3757 72.3021 18.5718C71.3959 18.7611 70.2938 18.8558 68.9957 18.8558C67.6975 18.8558 66.5955 18.7611 65.6895 18.5718C64.7833 18.3757 64.0465 18.0445 63.4783 17.578C62.9104 17.1116 62.4981 16.4828 62.2411 15.6916C61.9841 14.9004 61.8557 13.9066 61.8557 12.7099ZM63.8031 12.7099C63.8031 13.3588 63.8267 13.9235 63.8741 14.4035C63.9214 14.8835 64.0092 15.2961 64.1376 15.6407C64.2731 15.9856 64.4588 16.2663 64.6954 16.4828C64.932 16.699 65.2432 16.8714 65.6286 16.9998C66.014 17.1285 66.4804 17.2163 67.0282 17.2636C67.5825 17.3109 68.2385 17.3346 68.9957 17.3346C69.6449 17.3346 70.2228 17.321 70.7301 17.2941C71.2438 17.2601 71.6902 17.1891 72.0687 17.0811C72.4541 16.9729 72.7822 16.8208 73.0525 16.6247C73.3231 16.4218 73.5393 16.148 73.7017 15.8031C73.8706 15.4582 73.9924 15.0359 74.0667 14.5354C74.148 14.0282 74.1885 13.4198 74.1885 12.7099C74.1885 12.0134 74.148 11.4218 74.0667 10.935C73.9924 10.4413 73.8706 10.029 73.7017 9.69774C73.5393 9.36618 73.3231 9.10591 73.0525 8.91661C72.7822 8.72051 72.4541 8.57529 72.0687 8.48064C71.6902 8.37919 71.2438 8.31501 70.7301 8.2878C70.2228 8.26088 69.6449 8.24728 68.9957 8.24728C68.3467 8.24728 67.7652 8.26088 67.2512 8.2878C66.7442 8.31501 66.2979 8.37919 65.9125 8.48064C65.5339 8.57529 65.2095 8.72051 64.9388 8.91661C64.6685 9.10591 64.4487 9.36618 64.2796 9.69774C64.1175 10.029 63.9956 10.4413 63.9146 10.935C63.84 11.4218 63.8031 12.0134 63.8031 12.7099ZM90.0911 18.6328V12.1417C90.0911 11.4183 90.0369 10.8099 89.929 10.3162C89.8207 9.81605 89.6042 9.41351 89.2798 9.10946C88.9553 8.80511 88.4954 8.58535 87.9006 8.45018C87.3055 8.31501 86.5211 8.24728 85.5474 8.24728C84.4927 8.24728 83.6272 8.32506 82.9511 8.48064C82.2818 8.63622 81.7544 8.85598 81.369 9.13992C80.9836 9.42386 80.7166 9.76519 80.5678 10.1642C80.4258 10.5632 80.3548 11.0059 80.3548 11.4928V18.6328H78.4074V6.94913H80.3548V8.8965C80.4968 8.56523 80.6997 8.28099 80.9632 8.04437C81.227 7.80095 81.5246 7.5948 81.8559 7.42591C82.1871 7.25673 82.5456 7.12157 82.931 7.02012C83.3164 6.91187 83.7018 6.83082 84.0872 6.7767C84.4726 6.71577 84.8444 6.67524 85.2028 6.65513C85.5678 6.63472 85.8991 6.62467 86.1966 6.62467C87.0621 6.62467 87.8059 6.6788 88.4279 6.78675C89.0568 6.89501 89.5874 7.05384 90.0201 7.26354C90.4596 7.47324 90.8113 7.73352 91.0748 8.04437C91.3386 8.35553 91.5415 8.71726 91.6835 9.12957C91.8323 9.53537 91.9302 9.99174 91.9775 10.4987C92.0248 10.9991 92.0485 11.5469 92.0485 12.1417L92.0384 18.6328H90.0911ZM101.471 13.3082C100.551 13.3082 99.743 13.2946 99.0465 13.2677C98.3502 13.2405 97.7483 13.1864 97.2414 13.1054C96.7409 13.0175 96.3218 12.8956 95.9838 12.7404C95.6525 12.5848 95.3887 12.3786 95.1926 12.1216C94.9965 11.8578 94.858 11.5366 94.7767 11.158C94.6957 10.7726 94.6551 10.3567 94.6551 9.9107C94.6551 9.302 94.7835 8.7915 95.0405 8.3792C95.2973 7.96008 95.7099 7.62201 96.2778 7.36498C96.8456 7.10116 97.5827 6.91187 98.4887 6.79711C99.3949 6.68205 100.497 6.62467 101.795 6.62467C103.08 6.62467 104.138 6.69211 104.97 6.82757C105.808 6.96274 106.471 7.17215 106.957 7.45609C107.451 7.73352 107.796 8.0849 107.992 8.51111C108.188 8.93702 108.286 9.44397 108.286 10.0323H106.339C106.339 9.66728 106.268 9.36974 106.126 9.13992C105.99 8.90981 105.75 8.73087 105.406 8.60221C105.061 8.46704 104.594 8.37565 104.006 8.32832C103.425 8.27449 102.687 8.24728 101.795 8.24728C100.821 8.24728 100.003 8.26088 99.3408 8.2878C98.6779 8.31501 98.1438 8.38244 97.7383 8.4907C97.3325 8.59895 97.0417 8.76459 96.866 8.9876C96.6904 9.21091 96.6022 9.51851 96.6022 9.9107C96.6022 10.1405 96.6158 10.3671 96.643 10.5901C96.6767 10.8066 96.7477 10.9855 96.856 11.1275C96.9639 11.2698 97.1231 11.3777 97.3325 11.4523C97.5422 11.5265 97.8261 11.5839 98.1846 11.6247C98.5496 11.6584 98.9992 11.6788 99.5333 11.6853C100.067 11.6853 100.713 11.6853 101.471 11.6853C102.39 11.6853 103.195 11.7058 103.884 11.7463C104.581 11.7868 105.183 11.8578 105.69 11.9592C106.197 12.0607 106.616 12.2163 106.947 12.426C107.278 12.6354 107.542 12.8652 107.738 13.1154C107.941 13.3588 108.083 13.6496 108.164 13.9876C108.245 14.3189 108.286 14.7043 108.286 15.1438C108.286 15.5833 108.245 15.9788 108.164 16.3305C108.083 16.6753 107.941 16.9829 107.738 17.2536C107.535 17.5171 107.258 17.7469 106.907 17.943C106.562 18.1323 106.126 18.2879 105.598 18.4097C105.071 18.5245 104.439 18.6091 103.702 18.6632C102.971 18.7241 102.12 18.7543 101.146 18.7543C99.9291 18.7543 98.9045 18.6937 98.0728 18.5718C97.2482 18.4503 96.5821 18.2574 96.0749 17.9939C95.5679 17.7232 95.2026 17.3751 94.9796 16.9492C94.7634 16.5233 94.6551 16.0024 94.6551 15.3872H96.6022C96.6022 15.793 96.6699 16.1243 96.8051 16.3813C96.9471 16.6313 97.1905 16.8274 97.5354 16.9693C97.8803 17.1116 98.3434 17.2095 98.9249 17.2636C99.5132 17.3109 100.254 17.3346 101.146 17.3346C101.957 17.3346 102.647 17.3177 103.215 17.2837C103.79 17.2432 104.27 17.1826 104.655 17.1012C105.041 17.0202 105.345 16.922 105.568 16.8072C105.791 16.6922 105.96 16.5538 106.075 16.3914C106.19 16.229 106.261 16.0498 106.288 15.854C106.322 15.6511 106.339 15.4278 106.339 15.1843C106.339 14.9613 106.322 14.7652 106.288 14.5963C106.261 14.4204 106.193 14.2479 106.085 14.079C105.977 13.903 105.818 13.7714 105.608 13.6836C105.399 13.5954 105.112 13.5245 104.746 13.4703C104.388 13.4097 103.942 13.3692 103.408 13.3488C102.873 13.3219 102.228 13.3082 101.471 13.3082ZM122.241 13.4402C122.241 14.434 122.16 15.2657 121.998 15.935C121.836 16.5975 121.562 17.1284 121.177 17.5272C120.798 17.9261 120.297 18.2101 119.675 18.3793C119.053 18.5482 118.286 18.6328 117.373 18.6328C116.488 18.6328 115.744 18.565 115.142 18.4298C114.54 18.2947 114.053 18.0649 113.682 17.7401C113.31 17.4156 113.042 16.9829 112.88 16.442C112.718 15.9013 112.637 15.2251 112.637 14.4135V8.55162H110.233V6.94913H112.637V3.75449H114.584V6.94913H121.917V8.55162H114.584V14.4135C114.584 15.0628 114.632 15.5632 114.726 15.9146C114.827 16.2663 114.987 16.5233 115.203 16.6854C115.419 16.8478 115.703 16.9424 116.055 16.9693C116.413 16.9965 116.849 17.0101 117.363 17.0101C117.769 17.0101 118.131 17.0033 118.448 16.9897C118.773 16.9761 119.053 16.9356 119.29 16.8682C119.533 16.7936 119.74 16.6854 119.909 16.5434C120.078 16.3946 120.213 16.1885 120.314 15.925C120.423 15.6611 120.5 15.3299 120.548 14.9309C120.595 14.5254 120.619 14.0282 120.619 13.4402H122.241ZM131.004 18.8558C129.706 18.8558 128.604 18.7679 127.698 18.5922C126.792 18.4097 126.055 18.0986 125.487 17.6591C124.919 17.2196 124.506 16.6313 124.25 15.8945C123.993 15.1574 123.864 14.2311 123.864 13.1154C123.864 11.8377 123.993 10.7829 124.25 9.95123C124.506 9.11271 124.919 8.44663 125.487 7.95328C126.055 7.45964 126.792 7.11476 127.698 6.91866C128.604 6.72257 129.706 6.62467 131.004 6.62467C131.931 6.62467 132.732 6.69211 133.408 6.82757C134.091 6.96274 134.672 7.15884 135.152 7.41557C135.639 7.6726 136.031 7.98375 136.329 8.34873C136.633 8.71372 136.87 9.09911 137.039 9.50491C137.214 9.9039 137.333 10.3739 137.394 10.9146C137.461 11.4555 137.495 12.027 137.495 12.6286L137.333 13.2778H125.811C125.811 14.1701 125.899 14.9039 126.075 15.4786C126.251 16.0465 126.542 16.4624 126.947 16.7259C127.353 16.9897 127.887 17.1589 128.55 17.2332C129.212 17.3009 130.03 17.3346 131.004 17.3346C131.896 17.3346 132.634 17.3109 133.215 17.2636C133.803 17.2095 134.27 17.1116 134.615 16.9693C134.96 16.8274 135.199 16.6313 135.335 16.3813C135.477 16.1243 135.548 15.793 135.548 15.3872H137.495C137.495 16.0161 137.383 16.5538 137.16 16.9998C136.944 17.4393 136.582 17.7978 136.075 18.0749C135.568 18.3453 134.899 18.5414 134.067 18.6632C133.242 18.7916 132.221 18.8558 131.004 18.8558ZM131.004 8.24728C130.355 8.24728 129.773 8.26088 129.26 8.2878C128.753 8.31501 128.306 8.37564 127.921 8.47029C127.542 8.55843 127.218 8.69005 126.947 8.86604C126.677 9.03492 126.457 9.23782 126.288 9.47444C126.126 9.70426 126.004 10.0323 125.923 10.4582C125.849 10.8776 125.811 11.3845 125.811 11.9796H135.548C135.548 11.1884 135.463 10.5697 135.294 10.1237C135.125 9.67053 134.858 9.29876 134.493 9.00801C134.128 8.71727 133.658 8.51791 133.083 8.40966C132.508 8.30141 131.815 8.24728 131.004 8.24728ZM150.152 10.7525C150.152 10.2656 150.115 9.86338 150.041 9.54543C149.973 9.22096 149.807 8.96394 149.544 8.77464C149.28 8.57855 148.888 8.44338 148.367 8.36914C147.853 8.2878 147.15 8.24728 146.258 8.24728C145.386 8.24728 144.676 8.32506 144.128 8.48064C143.58 8.62942 143.151 8.84237 142.84 9.11951C142.529 9.39665 142.316 9.72792 142.201 10.1133C142.093 10.4987 142.039 10.9282 142.039 11.4014V18.6328H140.091V6.94913H142.039V8.80511C142.106 8.59541 142.231 8.36559 142.414 8.11537C142.596 7.85864 142.874 7.62201 143.246 7.4055C143.617 7.18249 144.097 6.99645 144.686 6.84768C145.281 6.69891 146.021 6.62467 146.907 6.62467C147.921 6.62467 148.746 6.71576 149.381 6.89855C150.017 7.07424 150.511 7.33778 150.862 7.68945C151.221 8.03432 151.461 8.46378 151.582 8.97754C151.711 9.4913 151.775 10.0831 151.775 10.7525H150.152ZM178.063 15.0628H165.731L163.783 18.6328H161.511L170.599 3.05469H173.195L182.282 18.6328H180.01L178.063 15.0628ZM177.089 13.4402L171.897 4.35284L166.704 13.4402H177.089ZM184.879 3.05469H196.583C197.549 3.05469 198.364 3.09846 199.027 3.18631C199.696 3.26765 200.247 3.39276 200.68 3.56165C201.113 3.73083 201.444 3.94023 201.674 4.19045C201.91 4.44068 202.083 4.73468 202.191 5.07275C202.299 5.41081 202.36 5.7897 202.374 6.20881C202.394 6.62792 202.404 7.0911 202.404 7.59835C202.404 8.12571 202.39 8.61256 202.363 9.05858C202.343 9.50491 202.265 9.9107 202.13 10.2757C202.002 10.6342 201.792 10.9518 201.501 11.229C201.217 11.4996 200.808 11.7262 200.274 11.9086C199.747 12.0911 199.074 12.2299 198.256 12.3245C197.445 12.4192 196.444 12.4665 195.254 12.4665H186.826V18.6328H184.879V3.05469ZM186.826 10.8436H195.254C196.119 10.8436 196.846 10.8303 197.434 10.8031C198.03 10.7693 198.52 10.712 198.905 10.6306C199.29 10.5496 199.588 10.4345 199.798 10.2857C200.007 10.137 200.159 9.94116 200.254 9.69774C200.355 9.45432 200.413 9.16359 200.426 8.82552C200.447 8.48065 200.457 8.07159 200.457 7.59835C200.457 7.15883 200.447 6.77995 200.426 6.46229C200.413 6.14463 200.355 5.87755 200.254 5.66104C200.159 5.44483 200.007 5.2724 199.798 5.14374C199.588 5.01537 199.29 4.91747 198.905 4.84973C198.52 4.77549 198.03 4.72788 197.434 4.70777C196.846 4.68736 196.119 4.6773 195.254 4.6773H186.826V10.8436ZM205 3.05469H206.948V18.6328H205V3.05469Z" fill="black"></path></g></g><defs><clipPath id="clip0_2640_701"><rect width="207" height="20.4971" fill="white"></rect></clipPath><clipPath id="clip1_2640_701"><rect width="206.893" height="20.4971" fill="white" transform="translate(0.0527344)"></rect></clipPath></defs></svg>